<?xml version="1.0" standalone="no"?>
<!DOCTYPE svg PUBLIC "-//W3C//DTD SVG 20010904//EN"
 "http://www.w3.org/TR/2001/REC-SVG-20010904/DTD/svg10.dtd">
<svg version="1.0" xmlns="http://www.w3.org/2000/svg"
 width="512.000000pt" height="512.000000pt" viewBox="0 0 512.000000 512.000000"
 preserveAspectRatio="xMidYMid meet">
<metadata>
Created by potrace 1.14, written by Peter Selinger 2001-2017
</metadata>
<g transform="translate(0.000000,512.000000) scale(0.100000,-0.100000)"
fill="#000000" stroke="none">
<path d="M2169 5116 c-2 -2 -24 -6 -49 -10 -67 -8 -99 -15 -160 -33 -30 -9
-63 -18 -72 -20 -43 -8 -224 -97 -302 -148 -110 -72 -239 -194 -322 -304 -58
-79 -134 -215 -182 -332 -11 -25 -26 -46 -33 -47 -8 0 -39 -8 -69 -17 -30 -9
-59 -17 -65 -19 -5 -2 -23 -9 -40 -15 -16 -7 -34 -14 -40 -15 -28 -6 -146 -71
-223 -123 -79 -52 -227 -189 -293 -270 -127 -156 -233 -408 -263 -623 -12 -86
-13 -289 -2 -365 22 -148 110 -396 161 -455 8 -8 14 -19 16 -25 2 -15 56 -93
101 -147 43 -52 43 -44 8 -185 -11 -46 -20 -93 -20 -105 1 -34 -10 -160 -14
-180 -2 -10 -1 -18 2 -18 4 0 8 -26 8 -58 2 -72 12 -142 31 -212 8 -30 16 -62
18 -71 2 -9 17 -51 34 -94 149 -372 441 -645 817 -763 147 -46 218 -56 389
-56 102 1 210 8 210 14 0 1 13 3 29 5 23 3 37 -5 80 -48 64 -63 100 -95 146
-127 19 -13 37 -27 40 -30 5 -5 19 -13 110 -65 123 -68 275 -119 430 -142 81
-12 405 -6 405 7 0 1 17 3 38 6 45 6 243 71 272 90 12 8 25 11 28 7 4 -3 7 -1
7 5 0 7 5 12 11 12 37 0 258 158 348 249 111 113 249 333 286 456 12 41 42 64
88 69 13 1 27 5 32 8 6 3 35 13 65 23 67 22 182 75 192 89 4 6 8 7 8 3 0 -17
183 118 258 191 89 86 139 147 199 242 54 85 115 212 120 250 1 3 8 23 17 45
19 50 36 115 42 163 2 20 8 51 12 67 5 17 8 93 7 170 -2 129 -6 178 -21 245
-3 14 -8 36 -10 50 -21 117 -130 351 -215 461 -88 113 -82 99 -64 171 23 88
24 93 39 198 8 57 9 186 2 198 -3 6 -2 13 4 17 6 4 7 12 3 18 -4 6 -8 23 -9
37 -8 73 -31 191 -49 248 -3 7 -4 13 -4 15 1 1 -10 28 -24 60 -14 31 -24 57
-22 57 2 0 -12 27 -31 61 -18 33 -34 63 -34 65 0 2 -16 28 -35 59 -125 195
-310 360 -521 462 -82 40 -227 92 -279 100 -16 2 -37 6 -45 9 -72 25 -360 25
-481 0 -21 -5 -35 4 -80 47 -118 112 -190 164 -324 231 -150 76 -185 89 -345
122 -65 14 -361 29 -371 20z m236 -341 c33 -4 69 -9 80 -12 11 -2 29 -6 40 -8
77 -13 301 -117 335 -155 3 -4 16 -13 28 -22 l24 -16 -69 -40 c-110 -64 -183
-106 -201 -117 -94 -54 -388 -223 -409 -235 -16 -8 -29 -18 -31 -22 -2 -5 -7
-8 -12 -8 -5 0 -48 -23 -97 -51 -48 -29 -108 -63 -133 -77 -131 -73 -163 -104
-177 -172 -3 -14 -6 -348 -6 -742 0 -395 -2 -718 -4 -718 -3 0 -62 33 -131 74
-70 41 -149 86 -177 101 -27 16 -67 39 -88 52 l-37 23 0 643 c1 681 3 716 51
853 11 33 21 65 23 72 1 7 8 18 14 24 7 7 12 18 12 25 0 8 18 41 40 74 22 33
40 62 40 64 0 10 125 142 171 180 128 108 305 183 490 208 96 13 126 13 224 2z
m1255 -401 c69 -11 73 -11 108 -22 17 -6 32 -8 32 -4 0 3 5 1 12 -6 7 -7 19
-12 27 -12 29 0 226 -102 251 -131 3 -3 16 -13 30 -22 62 -43 230 -233 230
-261 0 -5 8 -20 19 -34 39 -57 93 -220 108 -331 8 -53 7 -214 0 -251 -3 -14
-6 -29 -6 -33 -1 -5 -16 0 -33 11 -18 11 -47 28 -65 39 -135 78 -240 140 -255
148 -10 6 -53 31 -98 58 -44 26 -84 47 -90 47 -5 0 -10 3 -10 8 0 4 -10 12
-23 18 -25 12 -77 42 -287 166 -198 116 -228 130 -272 130 -40 -1 -79 -20
-274 -133 -259 -151 -394 -229 -437 -252 -29 -16 -63 -36 -77 -45 -14 -9 -35
-22 -47 -29 -59 -31 -89 -49 -103 -59 -8 -7 -37 -24 -65 -39 -27 -14 -63 -34
-80 -44 -16 -10 -50 -30 -75 -44 -25 -15 -56 -32 -70 -39 -14 -7 -27 -15 -30
-18 -9 -9 -49 -30 -58 -30 -5 0 -8 112 -8 250 l1 250 104 60 c57 33 108 60
113 60 4 0 8 5 8 10 0 6 5 10 11 10 6 0 37 15 68 34 31 19 79 47 106 63 206
115 330 189 333 195 2 5 8 8 13 8 4 0 41 19 81 43 40 24 80 46 88 50 8 4 38
21 65 37 65 39 193 100 210 100 8 0 17 5 20 10 4 6 10 8 15 5 5 -3 18 -1 29 5
54 29 260 42 381 24z m-2650 -1136 c0 -390 4 -627 10 -650 12 -41 53 -80 127
-118 26 -14 50 -28 51 -32 2 -5 8 -8 13 -8 5 0 38 -18 74 -40 36 -22 70 -40
75 -40 6 0 10 -4 10 -8 0 -5 16 -14 35 -22 19 -8 35 -17 35 -22 0 -4 5 -8 10
-8 6 0 80 -40 165 -90 85 -49 159 -90 164 -90 5 0 11 -4 13 -8 2 -5 37 -27 78
-50 41 -24 82 -47 90 -52 35 -22 172 -100 176 -100 2 0 28 -16 58 -35 30 -19
60 -35 66 -35 5 0 10 -5 10 -10 0 -6 3 -9 8 -8 4 1 17 -4 29 -12 22 -14 22
-14 -12 -37 -19 -13 -36 -23 -38 -23 -3 0 -83 -46 -178 -102 -96 -56 -178
-101 -184 -101 -6 0 -55 26 -110 58 -55 32 -120 69 -145 83 -25 13 -50 29 -56
33 -6 5 -31 20 -55 33 -24 13 -58 32 -76 42 -17 10 -62 37 -100 58 -37 22
-153 89 -258 149 -104 61 -199 116 -210 122 -26 14 -105 65 -119 76 -6 5 -22
19 -36 30 -81 66 -200 202 -200 227 0 6 -3 12 -7 14 -21 9 -134 278 -118 278
2 0 1 10 -4 23 -19 51 -29 248 -16 317 3 14 7 41 10 62 14 93 80 257 131 325
13 17 24 34 24 37 0 17 172 194 224 230 54 39 203 115 224 116 9 0 12 -129 12
-612z m2336 287 c53 -30 100 -55 105 -55 5 0 9 -4 9 -10 0 -5 4 -10 10 -10 5
0 50 -25 101 -55 50 -30 95 -55 100 -55 4 0 14 -6 21 -13 7 -7 24 -18 38 -25
14 -6 48 -26 75 -42 28 -16 57 -33 65 -37 12 -6 102 -57 160 -93 8 -5 62 -36
120 -69 58 -34 119 -69 135 -79 17 -9 32 -20 33 -24 2 -5 9 -8 15 -8 11 0 118
-88 150 -125 10 -11 31 -34 46 -51 16 -16 37 -43 47 -60 10 -16 24 -35 31 -42
7 -7 13 -20 13 -28 0 -8 5 -14 10 -14 6 0 10 -4 10 -9 0 -5 13 -38 29 -73 26
-57 41 -96 47 -123 47 -205 49 -335 8 -500 -45 -181 -130 -325 -272 -462 -41
-40 -83 -75 -93 -78 -11 -4 -19 -10 -19 -14 0 -9 -200 -114 -206 -108 -2 2 -4
283 -4 624 -1 668 1 652 -52 700 -19 17 -202 126 -372 222 -70 40 -102 59
-156 91 -30 18 -71 42 -90 53 -19 10 -75 43 -125 72 -249 146 -317 185 -326
185 -5 0 -9 5 -9 10 0 6 -6 10 -12 10 -7 1 -52 24 -100 53 l-86 53 85 49 c105
62 135 79 243 143 47 28 93 51 103 51 10 1 61 -24 113 -54z m-606 -424 c80
-46 156 -91 170 -99 14 -9 27 -17 30 -17 19 -2 170 -99 175 -113 10 -24 12
-72 2 -72 -5 0 -5 -5 -2 -11 11 -16 12 -69 2 -69 -4 0 -5 -5 -1 -12 10 -16 11
-68 1 -68 -5 0 -5 -5 -2 -11 11 -16 12 -69 2 -69 -4 0 -5 -5 -1 -12 10 -16 11
-68 1 -68 -5 0 -5 -5 -2 -11 11 -16 12 -69 2 -69 -4 0 -5 -5 -1 -12 10 -16 11
-69 1 -75 -4 -2 -4 -9 0 -16 20 -32 8 -56 -42 -84 -27 -15 -59 -33 -70 -40
-11 -7 -28 -16 -37 -19 -10 -3 -18 -10 -18 -15 0 -5 -5 -9 -11 -9 -6 0 -65
-32 -132 -71 -67 -40 -142 -83 -167 -97 -25 -13 -50 -29 -57 -34 -8 -6 -28 0
-60 19 -98 57 -109 63 -133 75 -14 7 -27 15 -30 19 -3 3 -18 12 -35 21 -64 33
-130 72 -133 80 -2 4 -8 8 -13 8 -6 0 -45 20 -87 45 l-78 44 -1 320 -2 319 67
40 c37 22 83 49 102 60 19 11 113 65 209 120 114 66 179 98 190 94 9 -4 82
-45 161 -91z m785 -456 c83 -48 171 -99 197 -113 26 -14 53 -30 58 -37 13 -16
14 -1271 2 -1325 -5 -19 -8 -45 -7 -57 1 -13 -1 -23 -5 -23 -4 0 -7 -6 -8 -12
-1 -25 -12 -68 -24 -95 -6 -16 -12 -30 -13 -33 -8 -30 -22 -62 -43 -95 -14
-22 -25 -41 -24 -43 7 -9 -117 -168 -165 -213 -46 -42 -115 -94 -170 -127 -65
-39 -189 -92 -197 -85 -3 4 -6 1 -6 -6 0 -7 -5 -9 -10 -6 -6 4 -17 1 -25 -5
-8 -7 -15 -10 -15 -6 0 3 -11 1 -24 -4 -64 -24 -278 -30 -386 -10 -146 27
-304 98 -412 186 l-27 22 120 68 c65 38 131 76 147 84 15 8 29 18 30 23 2 4 8
7 12 7 5 0 31 13 58 29 26 15 70 41 98 56 27 15 90 51 139 80 50 29 173 101
275 160 102 59 197 120 212 136 15 16 30 46 34 67 4 20 8 357 9 747 1 391 2
714 3 718 1 5 5 6 10 4 4 -2 75 -44 157 -92z m-404 -702 c4 -49 3 -70 -4 -86
-4 -9 -5 -23 -1 -29 9 -15 10 -58 1 -81 -3 -9 -3 -17 1 -17 8 0 8 -107 0 -116
-3 -3 -2 -21 2 -40 4 -19 4 -36 -1 -39 -4 -3 -4 -16 1 -29 6 -16 5 -29 -3 -39
-10 -12 -179 -112 -397 -235 -25 -14 -137 -79 -248 -144 -112 -65 -205 -118
-207 -118 -2 0 -32 -17 -66 -39 -180 -109 -269 -146 -419 -177 -126 -25 -310
-21 -398 10 -23 8 -42 13 -42 9 0 -3 -7 1 -17 8 -9 8 -17 12 -17 9 -2 -9 -86
23 -86 32 0 5 -4 7 -8 4 -10 -6 -150 74 -196 112 -79 66 -185 186 -229 260
-114 189 -151 345 -137 579 5 82 10 85 75 43 17 -10 41 -25 55 -33 70 -37 286
-162 290 -168 3 -3 20 -12 37 -20 18 -8 33 -17 33 -21 0 -5 4 -8 10 -8 5 0 31
-13 58 -29 26 -15 69 -40 95 -54 25 -14 115 -66 199 -115 238 -138 245 -142
289 -142 45 0 73 13 244 113 66 38 145 83 175 100 30 16 60 33 65 37 12 9 375
218 455 263 30 17 57 34 58 39 2 4 8 8 13 8 5 0 75 38 156 85 82 47 151 85
156 85 4 0 8 -8 8 -17z"/>
</g>
</svg>
